<svg width="253" height="101" viewBox="0 0 253 101" fill="none" xmlns="http://www.w3.org/2000/svg">
<path d="M143.05 19.4102V24.9358H130.37V50.3442H124.844V24.9358H112.164V19.4102H143.05Z" fill="white"/>
<path d="M179.726 34.8315C179.726 43.3595 172.789 50.2959 164.261 50.2959C155.733 50.2959 148.797 43.3595 148.797 34.8315C148.797 26.3035 155.733 19.3672 164.261 19.3672C172.789 19.3672 179.726 26.3035 179.726 34.8315ZM174.205 34.8315C174.205 29.3538 169.744 24.8875 164.261 24.8875C158.778 24.8875 154.317 29.3485 154.317 34.8315C154.317 40.3146 158.778 44.7756 164.261 44.7756C169.744 44.7756 174.205 40.3146 174.205 34.8315Z" fill="white"/>
<path d="M216.324 19.4102V24.9358H203.643V50.3442H198.118V24.9358H185.438V19.4102H216.324Z" fill="white"/>
<path d="M252.999 34.8315C252.999 43.3595 246.063 50.2959 237.535 50.2959C229.007 50.2959 222.07 43.3595 222.07 34.8315C222.07 26.3035 229.007 19.3672 237.535 19.3672C246.063 19.3672 252.999 26.3035 252.999 34.8315ZM247.473 34.8315C247.473 29.3538 243.012 24.8875 237.529 24.8875C232.046 24.8875 227.585 29.3485 227.585 34.8315C227.585 40.3146 232.046 44.7756 237.529 44.7756C243.012 44.7756 247.473 40.3146 247.473 34.8315Z" fill="white"/>
<path d="M115.234 80.1486V63.7793H125.386V65.9033H117.704V70.8913H124.657V73.01H117.704V80.1486H115.234Z" fill="white"/>
<path d="M118.238 80.682H114.703V63.248H125.919V66.4367H118.238V70.36H125.19V73.5434H118.238V80.682ZM115.768 79.6174H117.173V72.4787H124.125V71.4247H117.173V65.3721H124.855V64.3127H115.768V79.6174Z" fill="white"/>
<path d="M132.297 80.1478V63.8477H135.209V80.1478H132.297Z" fill="white"/>
<path d="M135.734 80.6812H131.758V63.3164H135.734V80.6812ZM132.822 79.6165H134.67V64.3811H132.822V79.6165Z" fill="white"/>
<path d="M158.485 63.8704V80.1705L155.573 77.9347L145.092 69.8538V80.1705H142.18V63.913L145.092 66.1488L155.573 74.2296V63.8438L158.485 63.865V63.8704Z" fill="white"/>
<path d="M159.019 81.2514L145.625 70.9347V80.7031H141.648V62.8379L155.037 73.1545V63.317L159.013 63.3489V81.2567L159.019 81.2514ZM142.718 79.6384H144.566V68.7734L157.959 79.0901V64.3976L156.112 64.3817V75.3158L142.724 64.9992V79.6437L142.718 79.6384Z" fill="white"/>
<path d="M181.174 80.1478H177.916L176.426 77.2359L172.864 70.2517L169.303 77.2359L167.813 80.1478H164.555L166.045 77.2359L172.87 63.8477L179.694 77.2359L181.185 80.1478H181.174Z" fill="white"/>
<path d="M182.045 80.6813H177.59L172.862 71.424L168.135 80.6813H163.68L165.564 76.9976L172.862 62.6777L182.045 80.6867V80.6813ZM178.239 79.6167H180.305L179.213 77.482L172.862 65.02L165.42 79.6167H167.486L172.862 69.0817L178.239 79.6167Z" fill="white"/>
<path d="M203.524 63.8704V80.1705L200.612 77.9347L190.131 69.8538V80.1705H187.219V63.913L190.131 66.1488L200.612 74.2296V63.8438L203.524 63.865V63.8704Z" fill="white"/>
<path d="M204.058 81.2514L190.664 70.9347V80.7031H186.688V62.8379L200.076 73.1545V63.317L204.052 63.3489V81.2567L204.058 81.2514ZM187.757 79.6384H189.605V68.7734L202.998 79.0901V64.3976L201.151 64.3817V75.3158L187.763 64.9992V79.6437L187.757 79.6384Z" fill="white"/>
<path d="M213.185 71.9977C213.185 74.883 215.538 77.2359 218.423 77.2359H226.574V80.1478H218.423C213.931 80.1478 210.273 76.4906 210.273 71.9977C210.273 67.5048 213.931 63.8477 218.423 63.8477H226.574V66.7595H218.423C215.538 66.7595 213.185 69.1125 213.185 71.9977Z" fill="white"/>
<path d="M227.115 80.6812H218.432C213.647 80.6812 209.75 76.7845 209.75 71.9988C209.75 67.2131 213.647 63.3164 218.432 63.3164H227.115V67.293H218.432C215.835 67.293 213.727 69.4063 213.727 71.9988C213.727 74.5913 215.84 76.7046 218.432 76.7046H227.115V80.6812ZM218.432 64.3811C214.232 64.3811 210.815 67.7987 210.815 71.9988C210.815 76.1989 214.232 79.6165 218.432 79.6165H226.05V77.7693H218.432C215.249 77.7693 212.662 75.1822 212.662 71.9988C212.662 68.8154 215.249 66.2283 218.432 66.2283H226.05V64.3811H218.432Z" fill="white"/>
<path d="M236.471 68.2456V69.7575H246.953V72.6694H236.471V75.7409C236.471 76.5554 237.147 77.2315 237.962 77.2315H249.865V80.1433H237.962C235.54 80.1433 233.586 78.1631 233.586 75.7409V68.2403C233.586 65.8182 235.54 63.8379 237.962 63.8379H249.865V66.7498H237.962C237.147 66.7498 236.471 67.4258 236.471 68.2403V68.2456Z" fill="white"/>
<path d="M250.398 80.6807H237.963C235.253 80.6807 233.055 78.4662 233.055 75.7459V68.2453C233.055 65.5251 235.259 63.3105 237.963 63.3105H250.398V67.2871H237.963C237.441 67.2871 237.005 67.7236 237.005 68.2453V69.2248H247.486V73.2014H237.005V75.7406C237.005 76.2623 237.441 76.6988 237.963 76.6988H250.398V80.6753V80.6807ZM237.963 64.3805C235.844 64.3805 234.119 66.116 234.119 68.2506V75.7512C234.119 77.8859 235.844 79.6213 237.963 79.6213H249.334V77.7741H237.963C236.845 77.7741 235.94 76.8691 235.94 75.7512V72.1473H246.422V70.3001H235.94V68.2559C235.94 67.138 236.845 66.2331 237.963 66.2331H249.334V64.3859H237.963V64.3805Z" fill="white"/>
<path d="M57.1527 5.85569H42.6466C41.0283 5.85569 39.7188 4.54615 39.7188 2.92785C39.7188 1.30955 41.0283 0 42.6466 0H57.1527C58.771 0 60.0806 1.30955 60.0806 2.92785C60.0806 4.54615 58.771 5.85569 57.1527 5.85569Z" fill="white"/>
<path d="M83.135 19.3987H16.6622C15.0439 19.3987 13.7344 18.0891 13.7344 16.4708C13.7344 14.8525 15.0439 13.543 16.6622 13.543H83.135C84.7533 13.543 86.0628 14.8525 86.0628 16.4708C86.0628 18.0891 84.7533 19.3987 83.135 19.3987Z" fill="white"/>
<path d="M92.7916 32.9475H72.7013C71.083 32.9475 69.7734 31.6379 69.7734 30.0196C69.7734 28.4013 71.083 27.0918 72.7013 27.0918H92.7916C94.4099 27.0918 95.7195 28.4013 95.7195 30.0196C95.7195 31.6379 94.4099 32.9475 92.7916 32.9475Z" fill="white"/>
<path d="M27.0963 32.9475H7.00597C5.38767 32.9475 4.07812 31.6379 4.07812 30.0196C4.07812 28.4013 5.38767 27.0918 7.00597 27.0918H27.0963C28.7146 27.0918 30.0242 28.4013 30.0242 30.0196C30.0242 31.6379 28.7146 32.9475 27.0963 32.9475Z" fill="white"/>
<path d="M96.8695 46.4885H58.3497C56.7314 46.4885 55.4219 45.179 55.4219 43.5607C55.4219 41.9424 56.7314 40.6328 58.3497 40.6328H96.8695C98.4878 40.6328 99.7974 41.9424 99.7974 43.5607C99.7974 45.179 98.4878 46.4885 96.8695 46.4885Z" fill="white"/>
<path d="M41.4477 46.4885H2.92785C1.30955 46.4885 0 45.179 0 43.5607C0 41.9424 1.30955 40.6328 2.92785 40.6328H41.4477C43.066 40.6328 44.3755 41.9424 44.3755 43.5607C44.3755 45.179 43.066 46.4885 41.4477 46.4885Z" fill="white"/>
<path d="M96.8695 60.0412H58.3497C56.7314 60.0412 55.4219 58.7317 55.4219 57.1134C55.4219 55.4951 56.7314 54.1855 58.3497 54.1855H96.8695C98.4878 54.1855 99.7974 55.4951 99.7974 57.1134C99.7974 58.7317 98.4878 60.0412 96.8695 60.0412Z" fill="white"/>
<path d="M41.4477 60.0412H2.92785C1.30955 60.0412 0 58.7317 0 57.1134C0 55.4951 1.30955 54.1855 2.92785 54.1855H41.4477C43.066 54.1855 44.3755 55.4951 44.3755 57.1134C44.3755 58.7317 43.066 60.0412 41.4477 60.0412Z" fill="white"/>
<path d="M92.7918 73.5842H58.3497C56.7314 73.5842 55.4219 72.2747 55.4219 70.6564C55.4219 69.0381 56.7314 67.7285 58.3497 67.7285H92.7918C94.4101 67.7285 95.7197 69.0381 95.7197 70.6564C95.7197 72.2747 94.4101 73.5842 92.7918 73.5842Z" fill="white"/>
<path d="M41.4481 73.5842H7.00597C5.38767 73.5842 4.07812 72.2747 4.07812 70.6564C4.07812 69.0381 5.38767 67.7285 7.00597 67.7285H41.4481C43.0664 67.7285 44.3759 69.0381 44.3759 70.6564C44.3759 72.2747 43.0664 73.5842 41.4481 73.5842Z" fill="white"/>
<path d="M83.135 87.1272H16.6622C15.0439 87.1272 13.7344 85.8176 13.7344 84.1993C13.7344 82.581 15.0439 81.2715 16.6622 81.2715H83.135C84.7533 81.2715 86.0628 82.581 86.0628 84.1993C86.0628 85.8176 84.7533 87.1272 83.135 87.1272Z" fill="white"/>
<path d="M57.1527 100.674H42.6466C41.0283 100.674 39.7188 99.3645 39.7188 97.7462C39.7188 96.1279 41.0283 94.8184 42.6466 94.8184H57.1527C58.771 94.8184 60.0806 96.1279 60.0806 97.7462C60.0806 99.3645 58.771 100.674 57.1527 100.674Z" fill="white"/>
</svg>
