<svg xmlns="http://www.w3.org/2000/svg" width="185" height="187" viewBox="0 0 185 187" fill="none"><metadata><rdf:RDF xmlns:rdf="http://www.w3.org/1999/02/22-rdf-syntax-ns#" xmlns:dc="http://purl.org/dc/elements/1.1/"><rdf:Description><dc:creator>RealFaviconGenerator</dc:creator><dc:source>https://realfavicongenerator.net</dc:source></rdf:Description></rdf:RDF></metadata><path d="M105.744 10.8332H78.9068C75.9147 10.8332 73.4902 8.40875 73.4902 5.41661C73.4902 2.42448 75.9147 0 78.9068 0H105.744C108.736 0 111.16 2.42448 111.16 5.41661C111.16 8.40875 108.736 10.8332 105.744 10.8332Z" fill="black"></path><path d="M153.813 35.8987H30.8277C27.8356 35.8987 25.4111 33.4742 25.4111 30.4821C25.4111 27.4899 27.8356 25.0654 30.8277 25.0654H153.813C156.805 25.0654 159.23 27.4899 159.23 30.4821C159.23 33.4742 156.805 35.8987 153.813 35.8987Z" fill="black"></path><path d="M171.68 60.966H134.509C131.517 60.966 129.093 58.5416 129.093 55.5494C129.093 52.5573 131.517 50.1328 134.509 50.1328H171.68C174.672 50.1328 177.097 52.5573 177.097 55.5494C177.097 58.5416 174.672 60.966 171.68 60.966Z" fill="black"></path><path d="M50.1312 60.966H12.9603C9.96818 60.966 7.5437 58.5416 7.5437 55.5494C7.5437 52.5573 9.96818 50.1328 12.9603 50.1328H50.1312C53.1233 50.1328 55.5478 52.5573 55.5478 55.5494C55.5478 58.5416 53.1233 60.966 50.1312 60.966Z" fill="black"></path><path d="M179.224 86.0212H107.956C104.964 86.0212 102.54 83.5967 102.54 80.6046C102.54 77.6125 104.964 75.188 107.956 75.188H179.224C182.216 75.188 184.64 77.6125 184.64 80.6046C184.64 83.5967 182.216 86.0212 179.224 86.0212Z" fill="black"></path><path d="M76.6858 86.0212H5.41661C2.42448 86.0212 0 83.5967 0 80.6046C0 77.6125 2.42448 75.188 5.41661 75.188H76.6858C79.6779 75.188 82.1024 77.6125 82.1024 80.6046C82.1024 83.5967 79.6779 86.0212 76.6858 86.0212Z" fill="black"></path><path d="M179.224 111.087H107.956C104.964 111.087 102.54 108.662 102.54 105.67C102.54 102.678 104.964 100.253 107.956 100.253H179.224C182.216 100.253 184.64 102.678 184.64 105.67C184.64 108.662 182.216 111.087 179.224 111.087Z" fill="black"></path><path d="M76.6858 111.087H5.41661C2.42448 111.087 0 108.662 0 105.67C0 102.678 2.42448 100.253 5.41661 100.253H76.6858C79.6779 100.253 82.1024 102.678 82.1024 105.67C82.1024 108.662 79.6779 111.087 76.6858 111.087Z" fill="black"></path><path d="M171.68 136.154H107.956C104.964 136.154 102.54 133.73 102.54 130.737C102.54 127.745 104.964 125.321 107.956 125.321H171.68C174.672 125.321 177.097 127.745 177.097 130.737C177.097 133.73 174.672 136.154 171.68 136.154Z" fill="black"></path><path d="M76.6859 136.154H12.962C9.96989 136.154 7.54541 133.73 7.54541 130.737C7.54541 127.745 9.96989 125.321 12.962 125.321H76.6859C79.678 125.321 82.1025 127.745 82.1025 130.737C82.1025 133.73 79.678 136.154 76.6859 136.154Z" fill="black"></path><path d="M153.813 161.209H30.8277C27.8356 161.209 25.4111 158.785 25.4111 155.793C25.4111 152.8 27.8356 150.376 30.8277 150.376H153.813C156.805 150.376 159.23 152.8 159.23 155.793C159.23 158.785 156.805 161.209 153.813 161.209Z" fill="black"></path><path d="M105.744 186.275H78.9068C75.9147 186.275 73.4902 183.85 73.4902 180.858C73.4902 177.866 75.9147 175.442 78.9068 175.442H105.744C108.736 175.442 111.16 177.866 111.16 180.858C111.16 183.85 108.736 186.275 105.744 186.275Z" fill="black"></path></svg>